<?xml version="1.0" encoding="UTF-8"?>
<svg id="Layer_1" data-name="Layer 1" xmlns="http://www.w3.org/2000/svg" version="1.1" viewBox="0 0 55 45">
  <defs>
    <style>
      .cls-1 {
        fill: #fdfce1;
      }

      .cls-1, .cls-2 {
        stroke-width: 0px;
      }

      .cls-2 {
        fill: #071537;
      }
    </style>
  </defs>
  <path class="cls-1" d="M27.5-2.5c10.05,0,20.1,0,30.14,0,.11,0,.13.02.13.13,0,16.58,0,33.16,0,49.74,0,.11-.02.13-.13.13-20.1,0-40.19,0-60.29,0-.11,0-.13-.02-.13-.13,0-16.58,0-33.16,0-49.74,0-.11.02-.13.13-.13,10.05,0,20.1,0,30.14,0ZM27.48-2.47c-10.01,0-20.03,0-30.04,0-.21,0-.19-.03-.19.19,0,16.52,0,33.04,0,49.56,0,.21-.03.18.18.18,20.04,0,40.08,0,60.13,0,.15,0,.18-.04.18-.18,0-16.53,0-33.05,0-49.58,0-.03,0-.07,0-.1,0-.06-.02-.09-.08-.08-.05,0-.1,0-.14,0-10.01,0-20.02,0-30.03,0Z"/>
  <path class="cls-2" d="M28.38,21.42c.39.2.77.38,1.15.58,2.13,1.14,4.16,2.43,5.93,4.09,1.38,1.3,2.53,2.77,3.39,4.47.49.96.82,1.97.93,3.05.11,1.08-.01,2.14-.32,3.19-.13.44-.28.88-.42,1.31-.14.41-.12.82.05,1.22.3.73.5,1.49.74,2.25.02.07,0,.09-.05.12-.08.04-.08-.03-.1-.06-.41-.7-.81-1.4-1.22-2.1-.03-.05-.06-.11-.1-.17-.22.28-.43.55-.64.81-1.16,1.43-2.61,2.49-4.29,3.23-1.35.59-2.77.96-4.24,1.14-1.34.16-2.69.15-4.03-.03-2.98-.41-5.8-1.31-8.41-2.82-1.92-1.11-3.35-2.7-4.39-4.65-.38-.72-.67-1.48-.98-2.23-.29-.7-.63-1.37-1.06-2-.19-.28-.43-.51-.78-.59-.34-.08-.63.04-.89.24-.32.26-.53.6-.68.97-.22.54-.42,1.09-.63,1.63-.02.04-.02.09-.07.13.03-.63.1-1.24.21-1.85.25-1.46.66-2.89,1-4.33.21-.92.39-1.85.47-2.8.02-.25.02-.24-.23-.27-.27-.03-.48.07-.68.24-.41.35-.75.76-1.11,1.15-.11.12-.22.25-.33.37-.04-.03,0-.06.01-.08.51-1.02,1.07-2.03,1.65-3.01.04-.07.09-.1.17-.11,2.1-.4,4.2-.8,6.3-1.19,1.99-.38,3.98-.75,5.97-1.13,1.89-.36,3.77-.72,5.66-1.08,1.98-.38,3.97-.75,5.96-1.12,1.84-.35,3.67-.7,5.5-1.05.7-.13,1.4-.26,2.1-.4.07-.01.11,0,.14.06.05.09.11.18.18.26.03.04.03.12.12.09.08-.03.1-.08.1-.16,0-.26,0-.52,0-.79,0-.25,0-.5,0-.74,0-.06-.04-.15.06-.16.07-.01.07.07.1.12.79,1.41,1.34,2.92,1.93,4.41.52,1.33,1.04,2.65,1.49,4,.26.77.41,1.57.35,2.38-.07,1.13-.42,2.16-1.19,3.02-.12.13-.25.26-.4.36-.37.24-.71.2-1-.14-.24-.28-.46-.58-.68-.88-.59-.84-1.1-1.72-1.7-2.56-1.05-1.47-2.21-2.84-3.61-3.99-1.21-.99-2.53-1.78-4.06-2.21-.94-.26-1.89-.36-2.87-.33-.23,0-.35.04-.5.13ZM18.38,32.25c0,.32.02.63.05.94.18,1.56.84,2.89,1.99,3.97,1.89,1.77,4.16,2.67,6.7,2.96.43.05.86.09,1.3.1.32.01.64,0,.97-.01.54-.03,1.07-.08,1.6-.18,1.18-.22,2.31-.59,3.35-1.2.75-.43,1.39-.99,1.93-1.67.06-.07.06-.12,0-.19-.1-.1-.19-.22-.3-.33-1.34-1.33-2.86-2.4-4.58-3.18-.82-.37-1.67-.65-2.58-.75-.38-.04-.59.06-.76.39-.03.06-.08.12-.12.17-.09.1-.14.09-.22-.02-.58-.79-1.19-1.56-1.82-2.3-1.11-1.31-2.29-2.55-3.53-3.73-.48-.46-.97-.9-1.45-1.35-.07-.06-.1-.06-.14.02-.06.12-.14.23-.21.34-.52.82-1.04,1.64-1.41,2.54-.45,1.11-.75,2.26-.76,3.47ZM33.03,29.3c-.1.14-.19.27-.29.4-.25.31-.25.62-.04.96.36.58.71,1.15,1.13,1.68.85,1.07,1.76,2.08,2.65,3.11.18.2.35.41.54.62.35-1.44.38-2.86,0-4.28-.42-1.54-1.21-2.89-2.23-4.11-1.19-1.43-2.63-2.57-4.19-3.57-1.07-.69-2.23-1.23-3.35-1.84-.33-.18-.7-.21-1.05-.05-.89.39-1.79.76-2.65,1.23-.69.39-1.34.84-1.85,1.46-.08.1-.08.16,0,.25.07.07.12.16.18.24.5.68.99,1.38,1.51,2.04.36.46.83.58,1.38.38.33-.12.65-.27.96-.44.9-.49,1.8-.99,2.7-1.48.03-.02.07-.07.11-.01.02.04.06.09,0,.14-.04.04-.08.09-.11.13-.12.14-.24.29-.31.47-.09.23-.04.36.19.48.39.2.78.4,1.17.6.83.42,1.64.86,2.51,1.18.35.13.7.26,1.06.39ZM42.17,26.93c0-.81-.39-1.39-1.09-1.64-.15-.05-.15-.05-.14.1.02.15.03.3.05.45.07.49.21.96.51,1.38.12.17.26.25.46.25.07,0,.1,0,.12-.08.05-.16.1-.32.08-.46Z"/>
  <path class="cls-2" d="M37.89,12.31c-.17-.14-.33-.28-.5-.42-.05-.04-.04-.08-.04-.13.17-1.34.34-2.68.51-4.02.16-1.24.32-2.48.47-3.72.02-.13.06-.12.16-.09,1.67.63,3.25,1.43,4.77,2.37,1.66,1.02,3.27,2.09,4.76,3.35,1.95,1.66,3.66,3.52,5,5.71.45.73.84,1.5,1.26,2.25.03.05.05.08,0,.13-.06.06-.09,0-.13-.03-.56-.47-1.12-.95-1.69-1.41-1.84-1.48-3.87-2.62-6.04-3.53-1.65-.69-3.36-1.15-5.12-1.43-.48-.08-.97-.14-1.46-.2-.8-.1-1.38.21-1.78.89-.03.05-.05.09-.08.14-.02.04-.04.09-.08.13Z"/>
  <path class="cls-2" d="M24.29.35c-.03.45-.06.87,0,1.29.02.15.04.33.21.39.17.06.29-.08.4-.19.03-.03.05-.06.09-.09-.06.2-.14.39-.2.58-.22.72-.32,1.47-.37,2.22-.03.51-.03,1.03.09,1.53.04.16.08.32.29.36-.19.2-.39.4-.56.61-.17.22-.37.43-.36.74,0,.06-.09.07-.11.13-.05.13-.07.26-.09.39-.06.58-.03,1.15.03,1.72.08.69.17,1.39.37,2.06.05.17.11.34.16.52-.05-.06-.1-.12-.16-.17-.21-.18-.39-.15-.52.1-.13.24-.17.5-.22.76-.05.3-.07.59-.09.94-.05-.09-.08-.15-.11-.2-.21-.39-.41-.77-.66-1.13-.04-.06-.09-.12-.14-.18-.07-.07-.14-.11-.2.02-.02-.47-.03-.95-.05-1.42-.04-1.07-.08-2.14-.11-3.21,0-.1-.05-.12-.13-.13-.3,0-.58.07-.85.21-.03.02-.07.03-.06.08.05.35-.02.69-.06,1.03-.15,1.19-.39,2.36-.62,3.54-.02.09-.05.15-.13.2-.21.15-.37.35-.56.53-.04-.03-.02-.07-.02-.1,0-.41,0-.83-.09-1.24-.04-.18-.11-.33-.26-.44-.06-.05-.08-.1-.06-.18.18-.84.28-1.7.4-2.55.1-.69.18-1.39.27-2.08.08-.63.14-1.26.18-1.89.06-.75.11-1.5.1-2.25,0-.33-.02-.65-.09-1.01.07.09.12.15.17.2.18.18.36.16.49-.06.13-.22.18-.46.22-.7.05-.29.08-.58.09-.91.03.09.05.16.06.22.14.49.46.8.96.9.43.09.85.06,1.27-.07.44-.15.74-.45.93-.87.02-.06.05-.11.08-.19ZM22.94,6.07s.02.04.04.02c.01-.01,0-.03-.01-.05-.05-1.07.06-2.12.27-3.16-.51.21-1.04.26-1.58.07.01,1.12-.13,2.23-.41,3.34.22-.2.47-.28.74-.32.33-.05.65-.09.96.09Z"/>
  <path class="cls-2" d="M13.35,14.9c.35-1.24.49-2.47.66-3.71.17-1.19.32-2.38.45-3.57.11-1.08.21-2.17.25-3.26.01-.5.03-1-.06-1.49-.01-.07-.04-.15-.06-.23.06.05.11.1.17.15.27.22.48.18.66-.11.15-.23.22-.49.28-.76.07-.31.13-.62.16-.96.05.04.04.09.05.12.14.55.51.86,1.08.91.25.02.5.01.75-.02.24-.03.33.04.41.26.06.18.08.38.24.51.02.02,0,.07.01.11.04.43.07.86.14,1.29.02.11.05.22.1.33.1.23.02.43-.06.64,0,.02-.03.04-.05.04-.03,0-.03-.03-.04-.06,0-.11,0-.22-.01-.33,0-.04,0-.08-.06-.06-.12.04-.17-.04-.19-.13-.05-.21-.04-.42-.03-.63,0-.12,0-.24,0-.35-.34.25-.74.26-1.14.22-.25-.02-.37-.18-.5-.52-.03.36-.06.71-.1,1.05-.1.85-.21,1.7-.4,2.54-.02.11-.04.22-.14.31.12.07.25.07.37.07.54-.03,1.07-.11,1.59-.24.05-.01.09-.02.14-.03.18-.01.18,0,.18.18,0,.27.05.54.15.79.08.2.11.34-.12.48-.2.12-.27.36-.24.61-.33-.13-.66-.09-.99-.05-.4.05-.8.11-1.18.28-.13.06-.2.1-.18.28.04.38-.04.77-.08,1.15-.1.78-.21,1.57-.36,2.34,0,.05-.02.09-.02.14.1-.16.19-.33.33-.46.24-.23.53-.32.86-.3.25.02.43.2.51.47.02.06.03.12.05.18.03-.3.06-.6.13-.89.02-.09.05-.17.09-.25.08-.15.19-.16.31-.05.14.12.22.29.33.48.03-.16.06-.29.09-.42.01-.05.03-.1.08-.11.06,0,.08.06.1.11.12.34.16.69.22,1.04.05.27.08.54.11.82-.05-.07-.09-.14-.14-.21-.13-.17-.29-.17-.42,0-.12.15-.18.34-.23.52-.12.42-.17.86-.24,1.32-.02-.09-.03-.15-.04-.21-.12-.61-.49-.92-1.11-.92-.56,0-1.08.16-1.5.55-.29.27-.47.6-.59.96-.03.07-.05.14-.08.21.02-.38.06-.76.05-1.14,0-.16-.02-.31-.06-.47-.05-.18-.15-.2-.29-.08-.16.14-.25.33-.39.54Z"/>
  <path class="cls-2" d="M28.39,13.79c-.07-.16-.13-.33-.2-.49-.13-.31-.25-.64-.43-.93-.07-.12-.1-.11-.14-.04,0-.64,0-1.31,0-1.98,0-.7.03-1.41.04-2.11,0-.09,0-.17.01-.26,0-.1-.04-.14-.13-.15-.21-.02-.42-.01-.62.08-.03.01-.07.02-.06.07.02.35-.05.7-.12,1.05-.15.84-.28,1.69-.36,2.54,0,.09-.02.19-.03.28-.01.1-.05.18-.13.26-.19.19-.33.42-.48.66,0-.27,0-.53,0-.8,0-.22-.02-.44-.09-.65-.03-.08-.06-.17-.14-.19-.13-.03-.1-.12-.09-.2.22-1.2.43-2.4.61-3.6.15-1,.27-2.01.36-3.02.05-.63.1-1.25.1-1.88,0-.21-.02-.42-.04-.66.05.09.08.16.12.23.13.21.26.2.37-.01.09-.18.14-.37.17-.57.05-.27.08-.54.11-.82.11.79.56,1.23,1.36,1.26.63.02,1.02-.3,1.22-.93-.02.43-.08.82-.02,1.21.02.13.02.29.16.35.15.06.25-.07.35-.17.01,0,.02-.02.06-.04-.1.26-.19.5-.25.74-.2.79-.32,1.59-.34,2.41,0,.27,0,.54.04.81.02.14.04.29.21.35-.21.23-.42.44-.59.69-.11.15-.21.31-.22.5,0,.08-.09.1-.11.17-.05.15-.07.3-.09.45-.07.64-.07,1.27-.02,1.91.04.6.09,1.21.25,1.79.02.07.04.15.07.25-.07-.08-.12-.15-.18-.2-.14-.13-.25-.11-.35.05-.13.2-.17.43-.22.66-.06.3-.09.61-.14.92ZM27.65,3.07c-.04,1.05-.2,2.07-.46,3.06.45-.24.9-.26,1.34,0,.02-.98.15-1.97.37-2.96-.34.18-.97.13-1.24-.1Z"/>
  <path class="cls-2" d="M4.86,13.5c-1.2,0-2.16.29-3.1.7-.26.11-.51.22-.77.34-.11.05-.22.06-.29-.06-.07-.12-.01-.21.09-.29,1.05-.85,2.13-1.67,3.17-2.53.55-.46,1.1-.91,1.53-1.5.49-.66.81-1.38.93-2.2.05-.37.03-.74-.09-1.1-.12-.38-.39-.61-.76-.73-.17-.05-.34-.1-.51-.14-.07-.02-.09-.04-.1-.11,0-.13-.08-.29-.01-.39.06-.09.23-.1.35-.15.42-.16.84-.32,1.25-.47.21-.08.31-.01.32.21.02.6.03,1.2.05,1.8.03,1.19.07,2.38.1,3.57.02.66.03,1.31.05,1.97.03,1.18.07,2.37.1,3.55.02.67.03,1.33.05,2,0,.16,0,.32.02.48,0,.09-.02.17-.09.23-.67.54-1.15,1.23-1.62,1.92-.45.67-.87,1.35-1.37,1.98-.11.14-.24.27-.35.41-.05.07-.09.06-.15.01-.08-.07-.16-.13-.25-.19-.08-.05-.07-.09-.03-.16.4-.69.8-1.37,1.2-2.06.59-1.01,1.19-2.02,1.64-3.1.35-.85.57-1.72.53-2.65-.01-.23-.04-.45-.08-.68-.04-.25-.18-.39-.42-.46-.5-.14-1-.23-1.35-.22Z"/>
  <path class="cls-2" d="M9.3,15.6c.18-.34.3-.71.54-1,.63-.78.74-1.7.75-2.65,0-.69-.01-1.37,0-2.06,0-.69.15-1.35.37-2,.31-.91.45-1.85.5-2.81.01-.21.04-.43.09-.63.04-.16.06-.32.24-.42.12-.06.21-.19.29-.31.11-.16.23-.31.37-.46.13-.14.2-.3.29-.5,0,.21,0,.39,0,.58-.02.35-.04.69-.07,1.04,0,.11,0,.21.02.31.04.26.18.4.43.44.05,0,.1.02.16.02-.38.54-.49,1.16-.61,1.78-.17.85-.33,1.71-.63,2.53-.15.41-.15.84-.18,1.27-.07,1.1-.11,2.2-.15,3.29-.02.43-.16.8-.48,1.11-.77.73-1.41,1.56-1.97,2.45-.01.02-.02.04-.05.05.03-.11.06-.22.09-.33.01-.05.03-.11-.02-.13-.05-.03-.09.03-.12.06-.16.15-.27.34-.39.53-.25.41-.44.85-.63,1.22.16-.46.39-.97.43-1.53.01-.14.01-.29-.06-.42-.03-.05-.06-.11-.13-.11-.07,0-.09.06-.12.11-.1.22-.12.45-.15.68,0,.03,0,.05-.02.08-.03-.73.08-1.46.02-2.24-.13.13-.1.27-.14.36,0-.28.04-.59.08-.89.08-.58.17-1.17.25-1.75.04-.26.07-.52.04-.78-.02-.16-.08-.19-.24-.1.14-.37.29-.71.45-1.04.07-.13.13-.26.22-.38.02-.03.05-.07.09-.06.04.01.04.06.04.1-.01.08.01.12.11.13.12.01.22.08.3.18.31.4.45.85.28,1.32-.15.41-.24.84-.4,1.25-.16.41-.3.83-.42,1.26.03-.05.06-.09.1-.14.07-.09.14-.18.27-.14.12.03.16.14.18.25.04.15-.02.3-.02.45-.02.03-.03.05,0,.08.03-.02.02-.05.02-.07Z"/>
  <path class="cls-2" d="M36.69,3.92c-.47.46-.66,1.05-.81,1.67-.1.42-.17.84-.12,1.27.02.19.03.39.26.48-.23.13-.46.26-.66.43-.15.12-.3.24-.35.44-.02.06-.05.04-.09.02-.14-.06-.27-.11-.42-.13-.12-.02-.26-.07-.34.02-.06.07-.14.17-.17.27-.07.26-.12.53-.17.79-.13.83-.23,1.67-.22,2.51,0,.05,0,.09,0,.14-.05-.04-.05-.11-.07-.16-.05-.1-.11-.11-.19-.05-.08.07-.14.16-.19.25-.22.38-.36.79-.51,1.19-.01.03-.02.06-.05.09-.05-.35-.08-.71-.18-1.05-.03-.1-.06-.2-.11-.29-.08-.14-.18-.15-.27-.02-.04.05-.06.1-.11.18.1-.42.18-.82.25-1.22.12-.78.24-1.57.29-2.36,0-.12-.04-.23-.03-.35,0-.05-.06-.06-.11-.07-.21-.04-.42,0-.62.07-.05.02-.11.04-.16.05-.05-.53-.46-.84-.75-1.22.17-.01.25-.14.32-.27.17-.33.26-.7.32-1.06.11-.62.17-1.24.15-1.87-.01-.38-.06-.75-.19-1.11,0-.03-.02-.05,0-.09.07.07.13.14.19.21.25.24.47.21.62-.11.15-.31.2-.65.23-1,.06,0,.05.06.07.09.16.37.32.75.48,1.13.05.11.09.22.18.31.04.04.03.09.03.13-.02.59-.09,1.18-.18,1.77-.06.38-.11.77-.21,1.15-.01.05-.01.1-.04.13-.11.14-.02.18.1.21.45.12.9.18,1.37.14.08,0,.11-.02.1-.13-.04-.32.03-.64.08-.96.1-.61.22-1.21.42-1.79.04-.11.1-.19.2-.26.31-.23.61-.48.92-.72.03-.03.07-.05.12-.09-.03.18-.06.33-.09.48-.03.12-.03.25-.02.37.01.32.21.47.52.41.07-.01.15-.04.22-.05,0,0,0,.01,0,.02Z"/>
  <path class="cls-2" d="M16.2,16.27c-.1.18-.23.34-.31.53-.02.06-.05.12,0,.17.05.05.11.02.17,0,.15-.04.28-.13.42-.2-.23.21-.46.42-.66.65-.41.44-.79.9-1.09,1.43-.06.1-.1.2-.13.31-.03.11,0,.17.13.18-.24.14-.46.26-.68.39-.24.14-.49.27-.7.46-.04.04-.09.03-.13.03-.77.08-1.53.22-2.29.39-.13.03-.22.08-.3.21-.18.3-.42.57-.64.84-.46.57-.95,1.11-1.45,1.65-.05.06-.16,0-.19.1h0c-.22.09-.39.24-.59.37-.28.19-.56.38-.83.58-.04.03-.08.07-.15.04.14-.18.3-.36.41-.56.05-.08.14-.18.07-.27-.07-.09-.19-.01-.28.02-.14.05-.28.12-.42.17,1.06-.9,1.98-1.93,2.89-2.96.92-1.03,1.84-2.07,2.56-3.26.15.12.24.13.44,0,.29-.17.5-.42.72-.67.06-.06.11-.13.18-.21,0,.12-.05.23.04.31.11.1.24.11.37.11.86-.03,1.65-.26,2.33-.8.03-.02.05-.04.08-.06,0,0,.01.01.02.02ZM11.7,19.61s.09-.03.14-.04c.42-.11.84-.24,1.29-.18.05,0,.05-.01.07-.04.09-.2.22-.38.35-.55.28-.38.58-.75.93-1.12-.06.02-.09.03-.12.04-.41.12-.83.24-1.27.2-.05,0-.06.02-.07.05-.38.59-.84,1.11-1.33,1.62-.01.01-.02.03-.03.04.02.01.04,0,.06-.01Z"/>
  <path class="cls-2" d="M33.85,14.57c-.05.13-.14.25-.18.39-.05.17,0,.25.17.29.14.03.28.02.43,0,.04,0,.09-.01.17-.02-1.32.5-2.74,2.5-2.86,3.57-.14-.11-.21-.11-.33.03-.09.1-.16.22-.21.34-.05.12-.1.24-.16.38-.03-.18-.04-.34-.08-.49-.07-.22-.02-.41.08-.61.12-.25.24-.5.38-.73.14-.24.29-.47.5-.68-.29-.1-.57-.1-.85-.03-.03,0-.05.04-.06.07-.29.64-.64,1.24-.96,1.86-.03.06-.09.11-.14.16-.25.27-.49.54-.76.84.08-.22.17-.38.21-.57.01-.04.02-.08.02-.13,0-.1-.03-.14-.13-.09-.08.04-.16.1-.26.16.53-.8.96-1.64,1.39-2.46.43-.82.91-1.62,1.1-2.54.19.2.31.18.5-.05.13-.16.2-.34.29-.55.02.24.14.4.29.54.14.14.3.27.45.4.06.05.14.06.21.07.27.01.52-.04.76-.17,0,0,.01.01.02.02ZM32.21,16.4c.18-.38.39-.75.6-1.1-.25-.08-.48-.19-.69-.33-.19.47-.48.87-.78,1.28.32-.06.6-.02.87.15Z"/>
  <path class="cls-2" d="M22.84,15.12c0,.09-.05.16-.08.24-.04.11-.08.21-.1.33,0,.04-.02.08.01.11.04.03.08,0,.12-.03.06-.04.11-.09.17-.13-.22.31-.43.64-.59.99-.09.19-.18.38-.23.58-.02.08-.01.12.11.11-.14.16-.27.31-.41.46-.13.14-.23.32-.41.4.04.05.08.03.11.04-.03.05-.08.05-.11.08-.02.02-.06.06-.05.06.17.06.02.18.06.27.04.1.05.21.07.32,0,.03,0,.05-.04.06-.08.03-.13.09-.18.16-.35.57-.61,1.18-.71,1.85-.05-.03-.07-.12-.14-.1-.07.02-.11.07-.16.12-.18.23-.28.49-.42.77,0-.05,0-.08,0-.11,0-.27-.13-.38-.39-.35-.45.05-.81.26-1.11.59-.03.04-.05.1-.13.09.08-.16.16-.33.21-.5.02-.05.06-.13,0-.17-.06-.05-.11.02-.16.05-.03.02-.05.05-.12.06.56-.85,1.01-1.74,1.43-2.65.42-.91.85-1.81,1.12-2.78.09.15.14.15.26.01.15-.18.25-.39.34-.61.02-.05.05-.1.08-.18,0,.07-.01.12-.01.17,0,.21.1.32.31.32.36,0,.66-.17.92-.41.08-.07.15-.14.23-.22ZM19.98,20.62c.22-.64.54-1.24.86-1.86-.22.12-.43.18-.65.14-.07-.01-.08,0-.11.06-.1.3-.24.59-.37.88-.14.3-.29.59-.46.9.24-.11.45-.24.72-.12ZM21.25,17.86c.1-.25.19-.5.29-.74.1-.25.22-.5.36-.75-.23.1-.44.19-.68.11-.17.53-.42,1.02-.68,1.52.24-.11.46-.2.71-.13Z"/>
  <path class="cls-2" d="M19.73,16.26c-.57.91-1.05,1.86-1.53,2.81-.37.76-.74,1.52-1.03,2.31-.04.12-.08.24-.11.36-.1-.14-.16-.15-.28-.01-.17.18-.27.4-.39.61-.03.06-.06.12-.1.19,0-.01-.01-.02-.01-.02.03-.39-.11-.5-.5-.42-.44.08-.79.31-1.09.63-.02.02-.04.04-.06.06,0,0-.01-.01-.02-.02.07-.19.19-.36.24-.56.01-.05.04-.1,0-.13-.05-.05-.09.01-.14.03-.05.02-.08.09-.13.07,1.14-1.76,2.13-3.6,2.9-5.56.03.01.03.13.12.1.06-.02.11-.07.15-.13.14-.18.24-.38.34-.57.03-.05.04-.12.1-.16,0,.03-.01.06-.02.1-.02.26.09.37.35.36.35-.02.65-.17.9-.41.08-.07.14-.15.22-.23,0,0,.01.01.02.02-.07.17-.14.34-.2.51-.02.05-.06.12,0,.16.06.04.1-.03.15-.05.03-.02.06-.04.09-.07,0,0,.01.01.02.02ZM16.45,21.38c.34-.76.72-1.5,1.09-2.24.37-.74.74-1.48,1.13-2.22-.12.11-.25.2-.4.24-.06.02-.12.02-.18,0-.07-.02-.07-.09-.09-.16-.72,1.54-1.49,3.02-2.29,4.49.13-.11.25-.22.42-.27.2-.06.26-.03.33.15Z"/>
  <path class="cls-2" d="M25.12,20.02c.88-1.37,1.55-2.84,2.13-4.36.11-.28.21-.57.26-.87.11.15.17.15.29.01.14-.16.22-.35.31-.54.02-.05.04-.09.07-.14.04.04.02.07.02.11.02.18.11.27.3.28.46.02.81-.2,1.12-.51.04-.04.07-.08.12-.14,0,.13-.06.22-.09.31-.02.09-.05.17-.07.26,0,.04-.01.08.03.1.04.03.07,0,.11-.02.05-.02.07-.08.13-.07-.85,1.64-1.6,3.31-2.13,5.09-.04-.02-.07-.11-.16-.07-.07.03-.12.08-.16.14-.14.19-.23.4-.33.61-.02.03-.03.07-.06.12-.04-.26-.02-.5-.09-.73-.01-.04,0-.07.02-.11.25-.68.53-1.34.87-1.99-.1-.06-.2,0-.3,0-.07,0-.15.03-.22.05-.16.03-.25.11-.31.28-.21.58-.49,1.13-.77,1.68-.19.38-.52.63-.78.94-.06.08-.14.14-.23.25.08-.2.16-.37.22-.53.03-.08.1-.19.02-.25-.08-.06-.16.05-.23.09-.01,0-.02.02-.04.02,0,0-.01-.01-.02-.02ZM28.83,15.11c-.13.05-.23.1-.34.11-.12.02-.23.05-.35,0-.04-.01-.05.02-.06.04-.16.51-.4.99-.64,1.48.24-.09.46-.19.72-.13.05.01.04-.04.05-.07.05-.13.09-.27.14-.4.14-.35.29-.7.48-1.05Z"/>
  <path class="cls-2" d="M33.09,19.07c.05-.14.13-.27.17-.41.02-.08.06-.16,0-.23-.06-.07-.15-.04-.23,0-.1.04-.19.08-.29.12.69-.84,1.29-1.74,1.9-2.63.09-.13.18-.27.26-.41.11-.19.21-.39.18-.64.44.46.66.5,1.08.21.11.35.39.54.66.74.69.51,1.43.93,2.16,1.38.04.02.08.05.13.08-.09,0-.17-.05-.26-.01.08.17.28.22.37.37-.39-.19-.79-.26-1.21-.21-.42.05-.79.22-1.12.49-.08.07-.12.2-.2.23-.09.03-.21-.01-.31,0-.23.03-.42.16-.57.33-.07.08-.11.06-.15-.02-.03-.04-.05-.1-.1-.12-.16-.11-.11-.2-.01-.32.24-.29.49-.55.85-.72-.26-.1-.52-.15-.77-.2-.15-.03-.31-.09-.45-.06-.14.03-.18.22-.27.33-.25.3-.48.6-.72.91-.02.02-.04.04-.06.06-.37.22-.71.47-1.05.75ZM37.64,16.7c-.45-.24-.89-.45-1.29-.73-.19.26-.48.41-.76.6.45.09.86.23,1.25.43.02,0,.04.03.06,0,.19-.22.46-.25.74-.29Z"/>
  <path class="cls-2" d="M25.14,20.04c-.06.06-.11.12-.2.02-.07-.08-.17-.05-.26,0-.15.1-.24.24-.33.39-.09.15-.17.3-.26.46,0-.31-.1-.43-.41-.42-.65.01-1.22.24-1.69.69-.06.06-.06.06-.15.1.08-.16.16-.31.21-.48.02-.07.06-.15,0-.2-.06-.05-.13,0-.2.03-.08.04-.14.11-.24.13.74-.82,2.8-4.74,2.78-5.42.23.13.33.11.51-.09.16-.18.27-.38.38-.59.02-.04.02-.08.07-.11.05.24.07.48.15.71.02.06-.02.11-.04.16-.46,1-.98,1.97-1.49,2.94-.27.52-.56,1.03-.84,1.54-.01.02-.02.05-.04.09.06,0,.08-.04.12-.06.2-.15.42-.25.67-.26.2,0,.24.02.31.21.06-.11.11-.22.17-.33.17-.28.27-.29.47-.04.03-.06.07-.11.1-.17.02-.03.04-.06.08-.05.04,0,.04.05.05.08.03.17.01.33,0,.5,0,.06,0,.13-.01.2.05,0,.05-.04.09-.05,0,0,.01.01.02.02Z"/>
  <path class="cls-2" d="M8.34,23.43c.02.05.05-.02.07,0-.01.01-.03.03-.04.03-.02,0,0-.04-.03-.04,0,0,0,0,0,0Z"/>
  <path class="cls-2" d="M33.83,14.55l.04-.02s0,.03-.02.04c0,0-.01-.01-.02-.02Z"/>
  <path class="cls-2" d="M16.18,16.25s.03-.06.05-.04c.02.02-.02.04-.03.06,0,0-.01-.01-.02-.02Z"/>
  <path class="cls-2" d="M14.62,22.79s-.02.02-.04.03c-.02-.02,0-.04.02-.05,0,0,.01.01.02.02Z"/>
  <path class="cls-2" d="M19.76,16.24s-.02-.03,0-.04c0,0,0,0,.01,0,0,.02,0,.03,0,.05h0Z"/>
  <path class="cls-2" d="M36.68,3.91s.02-.01.03-.02c.02.02,0,.03-.02.04,0,0,0-.01,0-.02Z"/>
  <path class="cls-2" d="M19.65,15.67s.03-.02.04-.04c.02.03,0,.04-.02.06,0,0-.01-.01-.02-.02Z"/>
  <path class="cls-2" d="M19.76,16.24s-.02.01-.03.02c0,0-.01-.01-.02-.02.02-.01.04-.03.05,0,0,0,0,0,0,0Z"/>
</svg>